<svg height="2430" width="720" xmlns="http://www.w3.org/2000/svg">
<rect height="2430" fill="#555" width="720"></rect>
<text fill="#7f7" font-family="Courier New" font-size="12" xml:space="preserve">
<tspan x="10" y="26">25 megabytes installed</tspan>
<tspan x="10" y="42"></tspan>
<tspan x="10" y="58">node_modules</tspan>
<tspan x="10" y="74">└─┬ slack-pokemon-emoji@1.0.0 </tspan>
<tspan x="10" y="90">  ├─┬ cheerio@0.20.0 </tspan>
<tspan x="10" y="106">  │ ├─┬ css-select@1.2.0 </tspan>
<tspan x="10" y="122">  │ │ ├── boolbase@1.0.0 </tspan>
<tspan x="10" y="138">  │ │ ├── css-what@2.1.0 </tspan>
<tspan x="10" y="154">  │ │ ├── domutils@1.5.1 </tspan>
<tspan x="10" y="170">  │ │ └── nth-check@1.0.1 </tspan>
<tspan x="10" y="186">  │ ├─┬ dom-serializer@0.1.0 </tspan>
<tspan x="10" y="202">  │ │ └── domelementtype@1.1.3 </tspan>
<tspan x="10" y="218">  │ ├── entities@1.1.1 </tspan>
<tspan x="10" y="234">  │ ├─┬ htmlparser2@3.8.3 </tspan>
<tspan x="10" y="250">  │ │ ├── domelementtype@1.3.0 </tspan>
<tspan x="10" y="266">  │ │ ├── domhandler@2.3.0 </tspan>
<tspan x="10" y="282">  │ │ ├── entities@1.0.0 </tspan>
<tspan x="10" y="298">  │ │ └─┬ readable-stream@1.1.14 </tspan>
<tspan x="10" y="314">  │ │   ├── isarray@0.0.1 </tspan>
<tspan x="10" y="330">  │ │   └── string_decoder@0.10.31 </tspan>
<tspan x="10" y="346">  │ ├─┬ jsdom@7.2.2 </tspan>
<tspan x="10" y="362">  │ │ ├── abab@1.0.3 </tspan>
<tspan x="10" y="378">  │ │ ├── acorn@2.7.0 </tspan>
<tspan x="10" y="394">  │ │ ├── acorn-globals@1.0.9 </tspan>
<tspan x="10" y="410">  │ │ ├── cssom@0.3.2 </tspan>
<tspan x="10" y="426">  │ │ ├── cssstyle@0.2.37 </tspan>
<tspan x="10" y="442">  │ │ ├─┬ escodegen@1.8.1 </tspan>
<tspan x="10" y="458">  │ │ │ ├── esprima@2.7.3 </tspan>
<tspan x="10" y="474">  │ │ │ ├── estraverse@1.9.3 </tspan>
<tspan x="10" y="490">  │ │ │ ├── esutils@2.0.2 </tspan>
<tspan x="10" y="506">  │ │ │ ├─┬ optionator@0.8.2 </tspan>
<tspan x="10" y="522">  │ │ │ │ ├── deep-is@0.1.3 </tspan>
<tspan x="10" y="538">  │ │ │ │ ├── fast-levenshtein@2.0.6 </tspan>
<tspan x="10" y="554">  │ │ │ │ ├── levn@0.3.0 </tspan>
<tspan x="10" y="570">  │ │ │ │ ├── prelude-ls@1.1.2 </tspan>
<tspan x="10" y="586">  │ │ │ │ ├── type-check@0.3.2 </tspan>
<tspan x="10" y="602">  │ │ │ │ └── wordwrap@1.0.0 </tspan>
<tspan x="10" y="618">  │ │ │ └─┬ source-map@0.2.0 </tspan>
<tspan x="10" y="634">  │ │ │   └── amdefine@1.0.1 </tspan>
<tspan x="10" y="650">  │ │ ├── nwmatcher@1.3.9 </tspan>
<tspan x="10" y="666">  │ │ ├── parse5@1.5.1 </tspan>
<tspan x="10" y="682">  │ │ ├─┬ request@2.81.0 </tspan>
<tspan x="10" y="698">  │ │ │ ├── aws-sign2@0.6.0 </tspan>
<tspan x="10" y="714">  │ │ │ ├── aws4@1.6.0 </tspan>
<tspan x="10" y="730">  │ │ │ ├── caseless@0.12.0 </tspan>
<tspan x="10" y="746">  │ │ │ ├── extend@3.0.0 </tspan>
<tspan x="10" y="762">  │ │ │ ├── forever-agent@0.6.1 </tspan>
<tspan x="10" y="778">  │ │ │ ├─┬ form-data@2.1.4 </tspan>
<tspan x="10" y="794">  │ │ │ │ └── asynckit@0.4.0 </tspan>
<tspan x="10" y="810">  │ │ │ ├─┬ har-validator@4.2.1 </tspan>
<tspan x="10" y="826">  │ │ │ │ ├─┬ ajv@4.11.7 </tspan>
<tspan x="10" y="842">  │ │ │ │ │ ├── co@4.6.0 </tspan>
<tspan x="10" y="858">  │ │ │ │ │ └─┬ json-stable-stringify@1.0.1 </tspan>
<tspan x="10" y="874">  │ │ │ │ │   └── jsonify@0.0.0 </tspan>
<tspan x="10" y="890">  │ │ │ │ └── har-schema@1.0.5 </tspan>
<tspan x="10" y="906">  │ │ │ ├─┬ hawk@3.1.3 </tspan>
<tspan x="10" y="922">  │ │ │ │ ├── boom@2.10.1 </tspan>
<tspan x="10" y="938">  │ │ │ │ ├── cryptiles@2.0.5 </tspan>
<tspan x="10" y="954">  │ │ │ │ ├── hoek@2.16.3 </tspan>
<tspan x="10" y="970">  │ │ │ │ └── sntp@1.0.9 </tspan>
<tspan x="10" y="986">  │ │ │ ├─┬ http-signature@1.1.1 </tspan>
<tspan x="10" y="1002">  │ │ │ │ ├── assert-plus@0.2.0 </tspan>
<tspan x="10" y="1018">  │ │ │ │ ├─┬ jsprim@1.4.0 </tspan>
<tspan x="10" y="1034">  │ │ │ │ │ ├── assert-plus@1.0.0 </tspan>
<tspan x="10" y="1050">  │ │ │ │ │ ├── extsprintf@1.0.2 </tspan>
<tspan x="10" y="1066">  │ │ │ │ │ ├── json-schema@0.2.3 </tspan>
<tspan x="10" y="1082">  │ │ │ │ │ └── verror@1.3.6 </tspan>
<tspan x="10" y="1098">  │ │ │ │ └─┬ sshpk@1.13.0 </tspan>
<tspan x="10" y="1114">  │ │ │ │   ├── asn1@0.2.3 </tspan>
<tspan x="10" y="1130">  │ │ │ │   ├── assert-plus@1.0.0 </tspan>
<tspan x="10" y="1146">  │ │ │ │   ├── bcrypt-pbkdf@1.0.1 </tspan>
<tspan x="10" y="1162">  │ │ │ │   ├─┬ dashdash@1.14.1 </tspan>
<tspan x="10" y="1178">  │ │ │ │   │ └── assert-plus@1.0.0 </tspan>
<tspan x="10" y="1194">  │ │ │ │   ├── ecc-jsbn@0.1.1 </tspan>
<tspan x="10" y="1210">  │ │ │ │   ├─┬ getpass@0.1.6 </tspan>
<tspan x="10" y="1226">  │ │ │ │   │ └── assert-plus@1.0.0 </tspan>
<tspan x="10" y="1242">  │ │ │ │   ├── jodid25519@1.0.2 </tspan>
<tspan x="10" y="1258">  │ │ │ │   ├── jsbn@0.1.1 </tspan>
<tspan x="10" y="1274">  │ │ │ │   └── tweetnacl@0.14.5 </tspan>
<tspan x="10" y="1290">  │ │ │ ├── is-typedarray@1.0.0 </tspan>
<tspan x="10" y="1306">  │ │ │ ├── isstream@0.1.2 </tspan>
<tspan x="10" y="1322">  │ │ │ ├── json-stringify-safe@5.0.1 </tspan>
<tspan x="10" y="1338">  │ │ │ ├── oauth-sign@0.8.2 </tspan>
<tspan x="10" y="1354">  │ │ │ ├── performance-now@0.2.0 </tspan>
<tspan x="10" y="1370">  │ │ │ ├── qs@6.4.0 </tspan>
<tspan x="10" y="1386">  │ │ │ ├── safe-buffer@5.0.1 </tspan>
<tspan x="10" y="1402">  │ │ │ ├── stringstream@0.0.5 </tspan>
<tspan x="10" y="1418">  │ │ │ ├── tunnel-agent@0.6.0 </tspan>
<tspan x="10" y="1434">  │ │ │ └── uuid@3.0.1 </tspan>
<tspan x="10" y="1450">  │ │ ├── sax@1.2.2 </tspan>
<tspan x="10" y="1466">  │ │ ├── symbol-tree@3.2.2 </tspan>
<tspan x="10" y="1482">  │ │ ├─┬ tough-cookie@2.3.2 </tspan>
<tspan x="10" y="1498">  │ │ │ └── punycode@1.4.1 </tspan>
<tspan x="10" y="1514">  │ │ ├── webidl-conversions@2.0.1 </tspan>
<tspan x="10" y="1530">  │ │ ├─┬ whatwg-url-compat@0.6.5 </tspan>
<tspan x="10" y="1546">  │ │ │ └── tr46@0.0.3 </tspan>
<tspan x="10" y="1562">  │ │ └── xml-name-validator@2.0.1 </tspan>
<tspan x="10" y="1578">  │ └── lodash@4.17.4 </tspan>
<tspan x="10" y="1594">  ├─┬ form-data@1.0.1 </tspan>
<tspan x="10" y="1610">  │ ├── async@2.3.0 </tspan>
<tspan x="10" y="1626">  │ ├─┬ combined-stream@1.0.5 </tspan>
<tspan x="10" y="1642">  │ │ └── delayed-stream@1.0.0 </tspan>
<tspan x="10" y="1658">  │ └─┬ mime-types@2.1.15 </tspan>
<tspan x="10" y="1674">  │   └── mime-db@1.27.0 </tspan>
<tspan x="10" y="1690">  ├─┬ glob@7.1.1 </tspan>
<tspan x="10" y="1706">  │ ├── fs.realpath@1.0.0 </tspan>
<tspan x="10" y="1722">  │ ├─┬ inflight@1.0.6 </tspan>
<tspan x="10" y="1738">  │ │ └── wrappy@1.0.2 </tspan>
<tspan x="10" y="1754">  │ ├── inherits@2.0.3 </tspan>
<tspan x="10" y="1770">  │ ├─┬ minimatch@3.0.3 </tspan>
<tspan x="10" y="1786">  │ │ └─┬ brace-expansion@1.1.7 </tspan>
<tspan x="10" y="1802">  │ │   ├── balanced-match@0.4.2 </tspan>
<tspan x="10" y="1818">  │ │   └── concat-map@0.0.1 </tspan>
<tspan x="10" y="1834">  │ ├── once@1.4.0 </tspan>
<tspan x="10" y="1850">  │ └── path-is-absolute@1.0.1 </tspan>
<tspan x="10" y="1866">  ├─┬ gm@1.23.0 </tspan>
<tspan x="10" y="1882">  │ ├── array-parallel@0.1.3 </tspan>
<tspan x="10" y="1898">  │ ├── array-series@0.1.5 </tspan>
<tspan x="10" y="1914">  │ ├─┬ cross-spawn@4.0.2 </tspan>
<tspan x="10" y="1930">  │ │ ├─┬ lru-cache@4.0.2 </tspan>
<tspan x="10" y="1946">  │ │ │ ├── pseudomap@1.0.2 </tspan>
<tspan x="10" y="1962">  │ │ │ └── yallist@2.1.2 </tspan>
<tspan x="10" y="1978">  │ │ └─┬ which@1.2.14 </tspan>
<tspan x="10" y="1994">  │ │   └── isexe@2.0.0 </tspan>
<tspan x="10" y="2010">  │ └─┬ debug@2.2.0 </tspan>
<tspan x="10" y="2026">  │   └── ms@0.7.1 </tspan>
<tspan x="10" y="2042">  ├─┬ hyperquest@2.1.2 </tspan>
<tspan x="10" y="2058">  │ ├─┬ buffer-from@0.1.1 </tspan>
<tspan x="10" y="2074">  │ │ └─┬ is-array-buffer-x@1.2.1 </tspan>
<tspan x="10" y="2090">  │ │   ├─┬ has-to-string-tag-x@1.2.0 </tspan>
<tspan x="10" y="2106">  │ │   │ └── has-symbol-support-x@1.2.0 </tspan>
<tspan x="10" y="2122">  │ │   ├─┬ is-object-like-x@1.2.0 </tspan>
<tspan x="10" y="2138">  │ │   │ ├── is-function-x@1.2.0 </tspan>
<tspan x="10" y="2154">  │ │   │ └── is-primitive@2.0.0 </tspan>
<tspan x="10" y="2170">  │ │   └─┬ to-string-tag-x@1.2.0 </tspan>
<tspan x="10" y="2186">  │ │     ├── lodash.isnull@3.0.0 </tspan>
<tspan x="10" y="2202">  │ │     └── validate.io-undefined@1.0.3 </tspan>
<tspan x="10" y="2218">  │ ├── duplexer2@0.0.2 </tspan>
<tspan x="10" y="2234">  │ └─┬ through2@0.6.5 </tspan>
<tspan x="10" y="2250">  │   └── readable-stream@1.0.34 </tspan>
<tspan x="10" y="2266">  ├── minimist@1.2.0 </tspan>
<tspan x="10" y="2282">  └─┬ through2@2.0.3 </tspan>
<tspan x="10" y="2298">    ├─┬ readable-stream@2.2.9 </tspan>
<tspan x="10" y="2314">    │ ├── buffer-shims@1.0.0 </tspan>
<tspan x="10" y="2330">    │ ├── core-util-is@1.0.2 </tspan>
<tspan x="10" y="2346">    │ ├── isarray@1.0.0 </tspan>
<tspan x="10" y="2362">    │ ├── process-nextick-args@1.0.7 </tspan>
<tspan x="10" y="2378">    │ ├── string_decoder@1.0.0 </tspan>
<tspan x="10" y="2394">    │ └── util-deprecate@1.0.2 </tspan>
<tspan x="10" y="2410">    └── xtend@4.0.1</tspan>
</text>
</svg>
